<svg width="138" height="35" viewBox="0 0 138 35" fill="none" xmlns="http://www.w3.org/2000/svg">
<path d="M1.35156 34C1.11719 34 0.921875 33.8594 0.765625 33.5781C0.625 33.2969 0.554688 33.0391 0.554688 32.8047C0.554688 32.5391 0.609375 32.3359 0.71875 32.1953C0.828125 32.0547 1.03125 31.9688 1.32812 31.9375C2.20312 31.875 2.97656 31.7031 3.64844 31.4219C4.32031 31.125 4.65625 30.7422 4.65625 30.2734V5.07812C4.65625 4.45312 4.48438 3.98438 4.14062 3.67188C3.8125 3.35938 3.42188 3.15625 2.96875 3.0625C2.53125 2.95312 1.92969 2.86719 1.16406 2.80469C0.820312 2.77344 0.59375 2.71094 0.484375 2.61719C0.375 2.50781 0.320312 2.28125 0.320312 1.9375C0.320312 1.70312 0.390625 1.44531 0.53125 1.16406C0.6875 0.882812 0.882812 0.742188 1.11719 0.742188H15.8359C16.0703 0.742188 16.2578 0.882812 16.3984 1.16406C16.5547 1.44531 16.6328 1.70312 16.6328 1.9375C16.6328 2.51562 16.375 2.80469 15.8594 2.80469C13 2.80469 11.5703 3.53906 11.5703 5.00781L11.5469 29.8516C11.5469 30.5547 11.7422 31.0312 12.1328 31.2812C12.5391 31.5156 13.0859 31.6328 13.7734 31.6328H20.2656C20.9531 31.6328 21.6484 31.2266 22.3516 30.4141C23.0703 29.6016 23.7344 28.5938 24.3438 27.3906C24.9531 26.1719 25.4609 24.9375 25.8672 23.6875C25.9453 23.4375 26.1562 23.25 26.5 23.125C26.8438 22.9844 27.1719 22.9141 27.4844 22.9141C27.8125 22.9141 28.1016 22.9844 28.3516 23.125C28.6016 23.2656 28.7109 23.4609 28.6797 23.7109L27.3672 34H1.35156Z" fill="black"/>
<path d="M41.6641 34.6328C40.1328 34.6328 38.8203 34.4453 37.7266 34.0703C36.6484 33.6953 35.7891 33 35.1484 31.9844C34.5078 30.9531 34.1875 29.5156 34.1875 27.6719V14.8047C34.1875 14.1797 34.0547 13.7109 33.7891 13.3984C33.5391 13.0703 33.2344 12.8594 32.875 12.7656C32.5312 12.6719 32.0859 12.5938 31.5391 12.5312C31.1953 12.5 30.9688 12.4375 30.8594 12.3438C30.75 12.2344 30.6953 12.0078 30.6953 11.6641C30.6953 11.4609 30.7656 11.25 30.9062 11.0312C31.0625 10.8125 31.2578 10.7031 31.4922 10.7031H39.7188C40.2969 10.7031 40.5859 10.9844 40.5859 11.5469V26.3125C40.5859 27.7812 40.7891 28.9531 41.1953 29.8281C41.6016 30.7031 42.3125 31.1406 43.3281 31.1406C44.7031 31.1406 45.8672 30.9297 46.8203 30.5078C47.7891 30.0703 48.6719 29.4219 49.4688 28.5625V14.8047C49.4688 14.1797 49.3047 13.7109 48.9766 13.3984C48.6484 13.0859 48.2578 12.8828 47.8047 12.7891C47.3672 12.6797 46.7812 12.5938 46.0469 12.5312C45.7031 12.5 45.4766 12.4375 45.3672 12.3438C45.2578 12.2344 45.2031 12.0078 45.2031 11.6641C45.2031 11.4609 45.2734 11.25 45.4141 11.0312C45.5703 10.8125 45.7656 10.7031 46 10.7031H54.9766C55.5547 10.7031 55.8438 10.9844 55.8438 11.5469V28.8906C55.8438 29.9062 55.9297 30.5938 56.1016 30.9531C56.2891 31.2969 56.5391 31.4688 56.8516 31.4688C57.3359 31.4688 57.7344 31.4062 58.0469 31.2812C58.2812 31.1719 58.4922 31.2969 58.6797 31.6562C58.8672 32.0156 58.9609 32.375 58.9609 32.7344C58.9609 32.9531 58.9219 33.0859 58.8438 33.1328C58.375 33.4609 57.6328 33.7812 56.6172 34.0938C55.6172 34.4219 54.3594 34.5859 52.8438 34.5859C51.6875 34.5859 50.8906 34.2109 50.4531 33.4609C50.0156 32.7109 49.7734 31.7812 49.7266 30.6719C49.3047 31.3281 48.6641 31.9609 47.8047 32.5703C46.9453 33.1797 45.9688 33.6719 44.875 34.0469C43.7969 34.4375 42.7266 34.6328 41.6641 34.6328Z" fill="black"/>
<path d="M62.7578 28.3281C62.7578 26.3906 63.4688 24.8516 64.8906 23.7109C66.3125 22.5547 68.0547 21.7188 70.1172 21.2031C72.1797 20.6719 74.5312 20.2656 77.1719 19.9844V16.1875C77.1719 14.9219 76.8438 13.9766 76.1875 13.3516C75.5312 12.7266 74.5469 12.4141 73.2344 12.4141C72.0312 12.4141 71.1797 12.5469 70.6797 12.8125L67.2578 18.8828C66.2109 18.8828 65.3594 18.6094 64.7031 18.0625C64.0625 17.5156 63.7422 16.75 63.7422 15.7656C63.7422 14.625 64.2656 13.6406 65.3125 12.8125C66.375 11.9688 67.7188 11.3281 69.3438 10.8906C70.9688 10.4531 72.6016 10.2344 74.2422 10.2344C77.5859 10.2344 80.0078 10.875 81.5078 12.1562C83.0234 13.4219 83.7812 15.0781 83.7812 17.125V29.3359C83.7812 29.9609 83.8672 30.5 84.0391 30.9531C84.2109 31.3906 84.4219 31.6094 84.6719 31.6094C84.875 31.6094 85.2656 31.5547 85.8438 31.4453C86.1875 31.3828 86.375 31.3516 86.4062 31.3516C86.6406 31.3516 86.8203 31.4844 86.9453 31.75C87.0703 32 87.1328 32.2734 87.1328 32.5703C87.1328 32.7578 87.0859 32.8906 86.9922 32.9688C86.5234 33.2969 85.7266 33.6406 84.6016 34C83.4922 34.3594 82.2734 34.5391 80.9453 34.5391C79.6016 34.5391 78.7109 34.2578 78.2734 33.6953C77.8359 33.1328 77.6172 32.4062 77.6172 31.5156V31.3984C75.6172 33.4922 72.9453 34.5391 69.6016 34.5391C68.5547 34.5391 67.5078 34.3203 66.4609 33.8828C65.4141 33.4453 64.5312 32.7656 63.8125 31.8438C63.1094 30.9062 62.7578 29.7344 62.7578 28.3281ZM69.6953 28.1172C69.6953 29.0234 69.9766 29.8047 70.5391 30.4609C71.1016 31.1016 71.875 31.4219 72.8594 31.4219C73.8438 31.4219 74.6953 31.2422 75.4141 30.8828C76.1328 30.5078 76.7188 30.0703 77.1719 29.5703V21.7891C75.5938 22.0234 74.2812 22.3281 73.2344 22.7031C72.2031 23.0625 71.3516 23.6719 70.6797 24.5312C70.0234 25.3906 69.6953 26.5859 69.6953 28.1172Z" fill="black"/>
<path d="M90.1562 34C89.9062 34 89.7109 33.8984 89.5703 33.6953C89.4297 33.4766 89.3594 33.2578 89.3594 33.0391C89.3594 32.7734 89.4141 32.5703 89.5234 32.4297C89.6328 32.2891 89.8359 32.2031 90.1328 32.1719C90.8984 32.1094 91.5391 31.9766 92.0547 31.7734C92.5859 31.5703 92.8516 31.2578 92.8516 30.8359V15.7656C92.8516 15.0312 92.7188 14.4688 92.4531 14.0781C92.1875 13.6875 91.875 13.4297 91.5156 13.3047C91.1562 13.1797 90.6875 13.0703 90.1094 12.9766C90.0312 12.9609 89.9141 12.9453 89.7578 12.9297C89.6016 12.8984 89.4688 12.8672 89.3594 12.8359C89.1719 12.7578 89.0312 12.6484 88.9375 12.5078C88.8438 12.3672 88.7969 12.1641 88.7969 11.8984C88.7969 11.6797 88.8516 11.4609 88.9609 11.2422C89.0703 11.0078 89.2031 10.8828 89.3594 10.8672C91.9375 10.7422 94.7031 10.6641 97.6562 10.6328H98.2656C98.4219 10.6328 98.5703 10.7031 98.7109 10.8438C98.8516 10.9844 98.9375 11.2266 98.9688 11.5703V15.8359C99.4531 14.8672 100.07 13.9609 100.82 13.1172C101.586 12.2734 102.461 11.5859 103.445 11.0547C104.43 10.5078 105.477 10.2344 106.586 10.2344C107.93 10.2344 108.898 10.6172 109.492 11.3828C110.086 12.1328 110.383 13.0625 110.383 14.1719C110.383 14.8594 110.203 15.5 109.844 16.0938C109.484 16.6875 109.047 17.1562 108.531 17.5C108.016 17.8438 107.531 18.0156 107.078 18.0156L104.055 14.1016C103.133 14.1016 102.227 14.5703 101.336 15.5078C100.461 16.4453 99.7578 17.5547 99.2266 18.8359V30.0625C99.2266 30.6406 99.4297 31.0781 99.8359 31.375C100.258 31.6562 100.711 31.8359 101.195 31.9141C101.68 31.9922 102.414 32.0781 103.398 32.1719C103.742 32.2031 103.969 32.2734 104.078 32.3828C104.188 32.4766 104.242 32.6953 104.242 33.0391C104.242 33.2578 104.172 33.4766 104.031 33.6953C103.891 33.8984 103.695 34 103.445 34H90.1562Z" fill="black"/>
<path d="M113.102 28.3281C113.102 26.3906 113.812 24.8516 115.234 23.7109C116.656 22.5547 118.398 21.7188 120.461 21.2031C122.523 20.6719 124.875 20.2656 127.516 19.9844V16.1875C127.516 14.9219 127.188 13.9766 126.531 13.3516C125.875 12.7266 124.891 12.4141 123.578 12.4141C122.375 12.4141 121.523 12.5469 121.023 12.8125L117.602 18.8828C116.555 18.8828 115.703 18.6094 115.047 18.0625C114.406 17.5156 114.086 16.75 114.086 15.7656C114.086 14.625 114.609 13.6406 115.656 12.8125C116.719 11.9688 118.062 11.3281 119.688 10.8906C121.312 10.4531 122.945 10.2344 124.586 10.2344C127.93 10.2344 130.352 10.875 131.852 12.1562C133.367 13.4219 134.125 15.0781 134.125 17.125V29.3359C134.125 29.9609 134.211 30.5 134.383 30.9531C134.555 31.3906 134.766 31.6094 135.016 31.6094C135.219 31.6094 135.609 31.5547 136.188 31.4453C136.531 31.3828 136.719 31.3516 136.75 31.3516C136.984 31.3516 137.164 31.4844 137.289 31.75C137.414 32 137.477 32.2734 137.477 32.5703C137.477 32.7578 137.43 32.8906 137.336 32.9688C136.867 33.2969 136.07 33.6406 134.945 34C133.836 34.3594 132.617 34.5391 131.289 34.5391C129.945 34.5391 129.055 34.2578 128.617 33.6953C128.18 33.1328 127.961 32.4062 127.961 31.5156V31.3984C125.961 33.4922 123.289 34.5391 119.945 34.5391C118.898 34.5391 117.852 34.3203 116.805 33.8828C115.758 33.4453 114.875 32.7656 114.156 31.8438C113.453 30.9062 113.102 29.7344 113.102 28.3281ZM120.039 28.1172C120.039 29.0234 120.32 29.8047 120.883 30.4609C121.445 31.1016 122.219 31.4219 123.203 31.4219C124.188 31.4219 125.039 31.2422 125.758 30.8828C126.477 30.5078 127.062 30.0703 127.516 29.5703V21.7891C125.938 22.0234 124.625 22.3281 123.578 22.7031C122.547 23.0625 121.695 23.6719 121.023 24.5312C120.367 25.3906 120.039 26.5859 120.039 28.1172Z" fill="black"/>
</svg>
